{
  "asset": { "version": "2.0" },

  "scene": 0,
  "scenes": [
    { "nodes": [0] }
  ],

  "nodes": [
    { "mesh": 0 }
  ],

  "meshes": [
    {
      "primitives": [
        {
          "attributes": { "POSITION": 1 },
          "indices": 0
        }
      ]
    }
  ],

  "buffers": [
    {
      "uri": "./Triangle.bin",
      "byteLength": 68
    }
  ],

  "bufferViews": [
    {
      "buffer": 0,
      "byteOffset": 0,
      "byteLength": 12,
      "target": 34963
    },
    {
      "buffer": 0,
      "byteOffset": 12,
      "byteLength": 48,
      "target": 34962
    }
  ],

  "accessors": [
    {
      "bufferView": 0,
      "byteOffset": 0,
      "componentType": 5123,
      "count": 6,
      "type": "SCALAR",
      "min": [0],
      "max": [3]
    },
    {
      "bufferView": 1,
      "byteOffset": 0,
      "componentType": 5126,
      "count": 4,
      "type": "VEC3",
      "min": [0.0, 0.0, 0.0],
      "max": [1.0, 1.0, 0.0]
    }
  ]
}
